<svg xmlns="http://www.w3.org/2000/svg" xmlns:xlink="http://www.w3.org/1999/xlink" fill="none" version="1.1" width="390" height="363.683349609375" viewBox="0 0 390 363.683349609375"><defs><filter id="master_svg0_17_22016" filterUnits="objectBoundingBox" color-interpolation-filters="sRGB" x="-20" y="-16" width="408" height="315"><feFlood flood-opacity="0" result="BackgroundImageFix"/><feColorMatrix in="SourceAlpha" type="matrix" values="0 0 0 0 0 0 0 0 0 0 0 0 0 0 0 0 0 0 127 0"/><feOffset dy="4" dx="0"/><feGaussianBlur stdDeviation="5"/><feColorMatrix type="matrix" values="0 0 0 0 0 0 0 0 0 0 0 0 0 0 0 0 0 0 0.05000000074505806 0"/><feBlend mode="normal" in2="BackgroundImageFix" result="effect1_dropShadow"/><feBlend mode="normal" in="SourceGraphic" in2="effect1_dropShadow" result="shape"/></filter><filter id="master_svg1_17_22016/1_0233" filterUnits="objectBoundingBox" color-interpolation-filters="sRGB" x="-20" y="-16" width="372.6719970703125" height="366.0180969238281"><feFlood flood-opacity="0" result="BackgroundImageFix"/><feColorMatrix in="SourceAlpha" type="matrix" values="0 0 0 0 0 0 0 0 0 0 0 0 0 0 0 0 0 0 127 0"/><feOffset dy="4" dx="0"/><feGaussianBlur stdDeviation="5"/><feColorMatrix type="matrix" values="0 0 0 0 0 0 0 0 0 0 0 0 0 0 0 0 0 0 0.05000000074505806 0"/><feBlend mode="normal" in2="BackgroundImageFix" result="effect1_dropShadow"/><feBlend mode="normal" in="SourceGraphic" in2="effect1_dropShadow" result="shape"/></filter><filter id="master_svg2_17_22067" filterUnits="objectBoundingBox" color-interpolation-filters="sRGB" x="-71.2682876586914" y="-53.951215744018555" width="267.2195053100586" height="267.51416015625"><feFlood flood-opacity="0" result="BackgroundImageFix"/><feColorMatrix in="SourceAlpha" type="matrix" values="0 0 0 0 0 0 0 0 0 0 0 0 0 0 0 0 0 0 127 0"/><feMorphology radius="2" operator="dilate" in="SourceAlpha" result="effect1_dropShadow"/><feOffset dy="17.31707191467285" dx="0"/><feGaussianBlur stdDeviation="17.31707191467285"/><feColorMatrix type="matrix" values="0 0 0 0 0.43921568989753723 0 0 0 0 0.20000000298023224 0 0 0 0 1 0 0 0 0.4000000059604645 0"/><feBlend mode="normal" in2="BackgroundImageFix" result="effect1_dropShadow"/><feBlend mode="normal" in="SourceGraphic" in2="effect1_dropShadow" result="shape"/></filter><filter id="master_svg3_17_22068" filterUnits="objectBoundingBox" color-interpolation-filters="sRGB" x="-71.2682876586914" y="-53.951215744018555" width="253.3658447265625" height="253.6277618408203"><feFlood flood-opacity="0" result="BackgroundImageFix"/><feColorMatrix in="SourceAlpha" type="matrix" values="0 0 0 0 0 0 0 0 0 0 0 0 0 0 0 0 0 0 127 0"/><feMorphology radius="2" operator="dilate" in="SourceAlpha" result="effect1_dropShadow"/><feOffset dy="17.31707191467285" dx="0"/><feGaussianBlur stdDeviation="17.31707191467285"/><feColorMatrix type="matrix" values="0 0 0 0 0.43921568989753723 0 0 0 0 0.20000000298023224 0 0 0 0 1 0 0 0 0.4000000059604645 0"/><feBlend mode="normal" in2="BackgroundImageFix" result="effect1_dropShadow"/><feBlend mode="normal" in="SourceGraphic" in2="effect1_dropShadow" result="shape"/></filter><radialGradient cx="0" cy="0" r="1" gradientUnits="userSpaceOnUse" id="master_svg4_1_897" gradientTransform="translate(130.17286682128906 155.6339045799386) rotate(54.19177635167819) scale(110.80160713232289 111.24610864722769)"><stop offset="0%" stop-color="#FB8F66" stop-opacity="1"/><stop offset="100%" stop-color="#7033FF" stop-opacity="1"/></radialGradient><radialGradient cx="0" cy="0" r="1" gradientUnits="userSpaceOnUse" id="master_svg5_1_954" gradientTransform="translate(190.3719482421875 132.0212269873231) rotate(45.81196031123865) scale(124.84414395380618 124.54980527226988)"><stop offset="0%" stop-color="#FB8F66" stop-opacity="1"/><stop offset="100%" stop-color="#7033FF" stop-opacity="1"/></radialGradient><filter id="master_svg6_17_22079" filterUnits="objectBoundingBox" color-interpolation-filters="sRGB" x="-6.926828861236572" y="-5.195121645927429" width="34.63414669036865" height="27.740056037902832"><feFlood flood-opacity="0" result="BackgroundImageFix"/><feColorMatrix in="SourceAlpha" type="matrix" values="0 0 0 0 0 0 0 0 0 0 0 0 0 0 0 0 0 0 127 0"/><feOffset dy="1.731707215309143" dx="0"/><feGaussianBlur stdDeviation="1.731707215309143"/><feColorMatrix type="matrix" values="0 0 0 0 0.43921568989753723 0 0 0 0 0.20000000298023224 0 0 0 0 1 0 0 0 0.20000000298023224 0"/><feBlend mode="normal" in2="BackgroundImageFix" result="effect1_dropShadow"/><feBlend mode="normal" in="SourceGraphic" in2="effect1_dropShadow" result="shape"/></filter></defs><g><g filter="url(#master_svg0_17_22016)"><g filter="url(#master_svg1_17_22016/1_0233)"><rect x="28.6639404296875" y="18.6651611328125" width="332.6719970703125" height="326.0180969238281" rx="24" fill="#FFFFFF" fill-opacity="1"/></g><g></g><g></g></g><g><g><g style="opacity:0.482724130153656;"><path d="M192.5377950349121,111.50859642028809C193.0113720349121,111.50859642028809,193.3915320349121,111.89951742028809,193.37832203491212,112.37291442028808L193.2271120349121,117.78874642028809C193.2168120349121,118.15789642028808,192.91459203491212,118.45179642028809,192.5452970349121,118.45179642028809C192.17673803491212,118.45179642028809,191.8748380349121,118.15901642028808,191.8635330349121,117.79063642028808L191.69733863491211,112.37524142028809C191.6827836349121,111.90096842028808,192.06329803491212,111.50859642028809,192.5377950349121,111.50859642028809" fill-rule="evenodd" fill="#ABA3CF" fill-opacity="1"/></g><g transform="matrix(0.9848029613494873,0.17404614388942719,-0.17325107753276825,0.9848126173019409,22.77941147563496,-34.88461402527781)" style="opacity:0.482724130153656;"><path d="M211.163803079834,113.03551387786865C211.637418079834,113.03551387786865,212.017598079834,113.42646287786866,212.00438807983397,113.89989287786865L211.85317807983398,119.31512387786866C211.84286807983398,119.68429387786865,211.540628079834,119.97822387786866,211.17130507983399,119.97822387786866C210.802719079834,119.97822387786866,210.50079707983397,119.68542387786866,210.48949007983398,119.31701387786865L210.323290379834,113.90221987786865C210.30873227983398,113.42791387786865,210.68927307983398,113.03551387786865,211.163803079834,113.03551387786865" fill-rule="evenodd" fill="#ABA3CF" fill-opacity="1"/></g><g transform="matrix(0.9332968592643738,0.35910576581954956,-0.35763120651245117,0.9338629245758057,57.391829118762644,-74.22859294681734)" style="opacity:0.482724130153656;"><path d="M229.28061274584962,117.8754653930664C229.7543357458496,117.8754653930664,230.1346057458496,118.26650639306641,230.1213757458496,118.74004439306641L229.9701557458496,124.1533153930664C229.9598357458496,124.5225753930664,229.6575257458496,124.81656539306641,229.2881157458496,124.81656539306641C228.9194437458496,124.81656539306641,228.6174487458496,124.5236953930664,228.6061327458496,124.15520539306641L228.43991664584962,118.7423733930664C228.4253483458496,118.2679593930664,228.8059747458496,117.8754653930664,229.28061274584962,117.8754653930664" fill-rule="evenodd" fill="#ABA3CF" fill-opacity="1"/></g><g transform="matrix(0.8566297888755798,0.5159315466880798,-0.5141450762748718,0.8577032685279846,99.88622225510994,-108.65507466502345)" style="opacity:0.482724130153656;"><path d="M246.1829475788574,125.86974334716797C246.6568195788574,125.86974334716797,247.03720957885741,126.26091334716797,247.02396957885742,126.73460134716797L246.8727195788574,132.14513334716796C246.86239957885743,132.51452334716797,246.55997957885742,132.80860334716797,246.19045157885742,132.80860334716797C245.8216585788574,132.80860334716797,245.51956257885743,132.51565334716796,245.5082355788574,132.14703334716796L245.3419962788574,126.73693234716796C245.32741397885744,126.26236734716797,245.70815857885742,125.86974334716797,246.1829475788574,125.86974334716797" fill-rule="evenodd" fill="#ABA3CF" fill-opacity="1"/></g><g transform="matrix(0.7539421916007996,0.6569408178329468,-0.6551766991615295,0.7554756999015808,153.70420465443806,-137.70752628975163)" style="opacity:0.482724130153656;"><path d="M261.3908376276855,136.75778007507324C261.86488962768556,136.75778007507324,262.2454196276855,137.14910507507324,262.23216962768555,137.62297407507324L262.08089962768554,143.03021007507323C262.07055962768555,143.39974007507325,261.76801962768553,143.69394007507324,261.39834262768557,143.69394007507324C261.02940362768555,143.69394007507324,260.72718562768557,143.40087007507324,260.71584562768555,143.03211007507323L260.5495775276855,137.62530707507324C260.53497822768554,137.15056007507323,260.91586562768555,136.75778007507324,261.3908376276855,136.75778007507324" fill-rule="evenodd" fill="#ABA3CF" fill-opacity="1"/></g><g transform="matrix(0.6284230351448059,0.7778717875480652,-0.7764187455177307,0.6302173733711243,218.2545451954578,-157.2477132394032)" style="opacity:0.482724130153656;"><path d="M274.4164316647949,150.190034866333C274.8906776647949,150.190034866333,275.27135766479495,150.58152286633302,275.2580876647949,151.055581866333L275.1067876647949,156.459354866333C275.0964376647949,156.82903486633302,274.7937676647949,157.12335486633302,274.42393866479495,157.12335486633302C274.0548456647949,157.12335486633302,273.7524996647949,156.830164866333,273.74114566479494,156.461254866333L273.57484836479495,151.057917866333C273.56023126479494,150.582979866333,273.9412686647949,150.190034866333,274.4164316647949,150.190034866333" fill-rule="evenodd" fill="#ABA3CF" fill-opacity="1"/></g><g transform="matrix(0.4686080515384674,0.8834062218666077,-0.8824874758720398,0.47033584117889404,297.2235573102221,-163.09261242632283)" style="opacity:0.482724130153656;"><path d="M284.8841693737793,165.7813892364502C285.3586043737793,165.7813892364502,285.7394343737793,166.1730422364502,285.7261443737793,166.6472932364502L285.5748243737793,172.04755923645018C285.5644643737793,172.4173992364502,285.2616643737793,172.7118292364502,284.8916773737793,172.7118292364502C284.5224293737793,172.7118292364502,284.2199533737793,172.41852923645018,284.2085853737793,172.0494592364502L284.0422582737793,166.6496322364502C284.0276231737793,166.1745012364502,284.4088123737793,165.7813892364502,284.8841693737793,165.7813892364502" fill-rule="evenodd" fill="#ABA3CF" fill-opacity="1"/></g><g transform="matrix(0.30835774540901184,0.9512704014778137,-0.9508417248725891,0.3096773028373718,375.5663682550612,-151.00046393850778)" style="opacity:0.482724130153656;"><path d="M292.366770954834,182.9475154876709C292.84134995483396,182.9475154876709,293.222279954834,183.3392854876709,293.208979954834,183.8136734876709L293.057639954834,189.2114454876709C293.047269954834,189.5813954876709,292.74437995483396,189.8759054876709,292.374279954834,189.8759054876709C292.004921954834,189.8759054876709,291.702353954834,189.5825254876709,291.69097595483396,189.2133454876709L291.524627554834,183.8160144876709C291.509979554834,183.3407454876709,291.891276954834,182.9475154876709,292.366770954834,182.9475154876709" fill-rule="evenodd" fill="#ABA3CF" fill-opacity="1"/></g><g transform="matrix(0.1388513296842575,0.9902516007423401,-0.9902845025062561,0.1394956111907959,453.9529920294943,-119.80877707912919)" style="opacity:0.482724130153656;"><path d="M296.67391953198245,201.17555809020996C297.1485815319824,201.17555809020996,297.52958153198244,201.56739909020996,297.5162715319824,202.04187009020995L297.3649215319824,207.43811809020997C297.3545415319824,207.80813809020995,297.0515915319824,208.10270809020997,296.6814285319824,208.10270809020997C296.31200353198244,208.10270809020997,296.0093795319824,207.80926809020997,295.99799453198244,207.44001809020995L295.83163353198245,202.04421309020995C295.8169776319824,201.56886009020997,296.1983405319824,201.17555809020996,296.67391953198245,201.17555809020996" fill-rule="evenodd" fill="#ABA3CF" fill-opacity="1"/></g><g transform="matrix(-0.22444739937782288,0.9744861721992493,-0.9742534756660461,-0.2254556119441986,592.9209707337998,5.365395212743408)" style="opacity:0.482724130153656;"><path d="M295.31789850073244,238.52497673034668C295.79252450073244,238.52497673034668,296.17349450073243,238.91678873034667,296.1601945007324,239.3912257303467L296.00884450073244,244.78809673034667C295.99846450073244,245.15808673034667,295.6955445007324,245.45263673034668,295.3254075007324,245.45263673034668C294.9560095007324,245.45263673034668,294.65340850073244,245.15921673034669,294.6420265007324,244.78999673034667L294.4756706007324,239.3935677303467C294.46101790073243,238.91824973034667,294.8423545007324,238.52497673034668,295.31789850073244,238.52497673034668" fill-rule="evenodd" fill="#ABA3CF" fill-opacity="1"/></g><g transform="matrix(-0.3899502158164978,0.9208359122276306,-0.9201725125312805,-0.3915131390094757,637.3622949267143,90.81228407782345)" style="opacity:0.482724130153656;"><path d="M289.68635610327146,256.3869915008545C290.16087210327146,256.3869915008545,290.5417621032715,256.77870750085447,290.52846210327147,257.2530325008545L290.3771321032715,262.6519415008545C290.36676210327147,263.0218415008545,290.0639121032715,263.3163215008545,289.6938651032715,263.3163215008545C289.3245571032715,263.3163215008545,289.0220311032715,263.0229715008545,289.0106571032715,262.65384150085447L288.84431890327147,257.2553735008545C288.8296767032715,256.7801675008545,289.2109251032715,256.3869915008545,289.68635610327146,256.3869915008545" fill-rule="evenodd" fill="#ABA3CF" fill-opacity="1"/></g><g transform="matrix(-0.5437349677085876,0.839257001876831,-0.8380825519561768,-0.5455434322357178,661.15551408634,186.78938196405898)" style="opacity:0.482724130153656;"><path d="M280.9663640583496,272.9547863006592C281.4407160583496,272.9547863006592,281.8214860583496,273.34636730065915,281.8082060583496,273.8205353006592L281.6568860583496,279.2223263006592C281.6465360583496,279.5920963006592,281.3437860583496,279.8864763006592,280.9738720583496,279.8864763006592C280.6046910583496,279.8864763006592,280.3022720583496,279.5932263006592,280.2909100583496,279.2242163006592L280.1245955583496,273.8228733006592C280.1099682583496,273.34782630065916,280.49109205834964,272.9547863006592,280.9663640583496,272.9547863006592" fill-rule="evenodd" fill="#ABA3CF" fill-opacity="1"/></g><g transform="matrix(-0.6938093900680542,0.7201586365699768,-0.7185200452804565,-0.69550621509552,661.6092775519235,294.49341342206117)" style="opacity:0.482724130153656;"><path d="M269.40728149682616,287.75135612487793C269.88143549682616,287.75135612487793,270.2620354968262,288.14276312487794,270.24877549682617,288.6167271248779L270.09748549682615,294.02222612487793C270.08714549682617,294.39183612487795,269.78453549682615,294.68608612487793,269.4147884968262,294.68608612487793C269.04577149682615,294.68608612487793,268.74348949682616,294.39296612487794,268.73214249682616,294.0241261248779L268.56585979682615,288.6190621248779C268.55125159682615,288.1442191248779,268.9322144968262,287.75135612487793,269.40728149682616,287.75135612487793" fill-rule="evenodd" fill="#ABA3CF" fill-opacity="1"/></g><g transform="matrix(-0.6938093900680542,-0.7201586365699768,0.7185200452804565,-0.69550621509552,-8.22832745926712,574.7905797518242)" style="opacity:0.482724130153656;"><path d="M118.60507355004883,288.99999809265137C119.07922755004883,288.99999809265137,119.45982755004883,289.3914050926514,119.44656755004883,289.86536909265135L119.29527755004882,295.27086809265137C119.28493755004882,295.6404780926514,118.98232755004882,295.93472809265137,118.61258055004883,295.93472809265137C118.24356355004883,295.93472809265137,117.94128155004883,295.6416080926514,117.92993455004883,295.27276809265135L117.76365185004883,289.86770409265137C117.74904365004883,289.39286109265134,118.13000655004883,288.99999809265137,118.60507355004883,288.99999809265137" fill-rule="evenodd" fill="#ABA3CF" fill-opacity="1"/></g><g transform="matrix(-0.5437349677085876,-0.839257001876831,0.8380825519561768,-0.5455434322357178,-66.46866714646524,513.0062632225927)" style="opacity:0.482724130153656;"><path d="M106.78696456799317,274.41056632995605C107.26131656799316,274.41056632995605,107.64208656799316,274.80214732995603,107.62880656799317,275.27631532995605L107.47748656799317,280.67810632995605C107.46713656799317,281.04787632995607,107.16438656799316,281.34225632995606,106.79447256799317,281.34225632995606C106.42529156799317,281.34225632995606,106.12287256799317,281.04900632995606,106.11151056799316,280.67999632995605L105.94519606799317,275.27865332995606C105.93056876799317,274.80360632995604,106.31169256799316,274.41056632995605,106.78696456799317,274.41056632995605" fill-rule="evenodd" fill="#ABA3CF" fill-opacity="1"/></g><g transform="matrix(-0.3899502158164978,-0.9208359122276306,0.9201725125312805,-0.3915131390094757,-102.65951743257204,448.2479379665582)" style="opacity:0.482724130153656;"><path d="M97.80104593023681,257.9848003387451C98.27556193023682,257.9848003387451,98.65645193023681,258.3765163387451,98.64315193023681,258.8508413387451L98.49182193023681,264.2497503387451C98.48145193023682,264.61965033874515,98.17860193023682,264.9141303387451,97.80855493023682,264.9141303387451C97.43924693023682,264.9141303387451,97.13672093023682,264.62078033874513,97.12534693023682,264.2516503387451L96.95900873023682,258.8531823387451C96.94436653023682,258.3779763387451,97.32561493023681,257.9848003387451,97.80104593023681,257.9848003387451" fill-rule="evenodd" fill="#ABA3CF" fill-opacity="1"/></g><g transform="matrix(-0.22444739937782288,-0.9744861721992493,0.9742534756660461,-0.2254556119441986,-122.58992168807902,383.0661419621554)" style="opacity:0.482724130153656;"><path d="M91.88283609228516,240.21630668640137C92.35746209228516,240.21630668640137,92.73843209228515,240.60811868640135,92.72513209228515,241.08255568640138L92.57378209228516,246.47942668640135C92.56340209228516,246.84941668640136,92.26048209228516,247.14396668640137,91.89034509228516,247.14396668640137C91.52094709228516,247.14396668640137,91.21834609228516,246.85054668640137,91.20696409228516,246.48132668640136L91.04060819228516,241.08489768640138C91.02595549228515,240.60957968640136,91.40729209228516,240.21630668640137,91.88283609228516,240.21630668640137" fill-rule="evenodd" fill="#ABA3CF" fill-opacity="1"/></g><g transform="matrix(0.1388513296842575,-0.9902516007423401,0.9902845025062561,0.1394956111907959,-124.25747425526401,262.75104396353174)" style="opacity:0.482724130153656;"><path d="M89.89640555111694,202.89446830749512C90.37106755111694,202.89446830749512,90.75206755111694,203.28630930749512,90.73875755111695,203.7607803074951L90.58740755111694,209.15702830749512C90.57702755111694,209.5270483074951,90.27407755111695,209.82161830749513,89.90391455111694,209.82161830749513C89.53448955111695,209.82161830749513,89.23186555111694,209.52817830749512,89.22048055111695,209.1589283074951L89.05411955111694,203.7631233074951C89.03946365111695,203.28777030749512,89.42082655111695,202.89446830749512,89.89640555111694,202.89446830749512" fill-rule="evenodd" fill="#ABA3CF" fill-opacity="1"/></g><g transform="matrix(0.30835774540901184,-0.9512704014778137,0.9508417248725891,0.3096773028373718,-111.1732987961858,215.93882090776503)" style="opacity:0.482724130153656;"><path d="M93.90910265039062,184.59836387634277C94.38368165039063,184.59836387634277,94.76461165039062,184.99013387634278,94.75131165039062,185.4645218763428L94.59997165039063,190.86229387634276C94.58960165039062,191.23224387634278,94.28671165039063,191.52675387634278,93.91661165039062,191.52675387634278C93.54725365039063,191.52675387634278,93.24468565039062,191.23337387634277,93.23330765039063,190.86419387634277L93.06695925039062,185.4668628763428C93.05231125039063,184.99159387634276,93.43360865039062,184.59836387634277,93.90910265039062,184.59836387634277" fill-rule="evenodd" fill="#ABA3CF" fill-opacity="1"/></g><g transform="matrix(0.4686080515384674,-0.8834062218666077,0.8824874758720398,0.47033584117889404,-94.38329274965497,177.17701446665455)" style="opacity:0.482724130153656;"><path d="M101.11334494140625,167.3140048980713C101.58777994140625,167.3140048980713,101.96860994140626,167.70565789807128,101.95531994140624,168.1799088980713L101.80399994140625,173.58017489807128C101.79363994140625,173.9500148980713,101.49083994140625,174.2444448980713,101.12085294140626,174.2444448980713C100.75160494140626,174.2444448980713,100.44912894140624,173.95114489807128,100.43776094140625,173.58207489807128L100.27143384140625,168.1822478980713C100.25679874140624,167.7071168980713,100.63798794140625,167.3140048980713,101.11334494140625,167.3140048980713" fill-rule="evenodd" fill="#ABA3CF" fill-opacity="1"/></g><g transform="matrix(0.6284230351448059,-0.7778717875480652,0.7764187455177307,0.6302173733711243,-76.62253464212858,141.94094949950136)" style="opacity:0.482724130153656;"><path d="M111.30353379187012,151.53900718688965C111.77777979187012,151.53900718688965,112.15845979187011,151.93049518688966,112.14518979187012,152.40455418688964L111.99388979187012,157.80832718688964C111.98353979187011,158.17800718688966,111.68086979187012,158.47232718688966,111.31104079187011,158.47232718688966C110.94194779187012,158.47232718688966,110.63960179187012,158.17913718688965,110.62824779187012,157.81022718688965L110.46195049187011,152.40689018688965C110.44733339187012,151.93195218688965,110.82837079187011,151.53900718688965,111.30353379187012,151.53900718688965" fill-rule="evenodd" fill="#ABA3CF" fill-opacity="1"/></g><g transform="matrix(0.7539421916007996,-0.6569408178329468,0.6551766991615295,0.7554756999015808,-60.02162835119009,114.68264916975784)" style="opacity:0.482724130153656;"><path d="M124.11128898266601,137.8965663909912C124.58534098266601,137.8965663909912,124.96587098266602,138.2878913909912,124.95262098266602,138.7617603909912L124.80135098266602,144.1689963909912C124.79101098266601,144.53852639099122,124.48847098266602,144.8327263909912,124.11879398266602,144.8327263909912C123.74985498266602,144.8327263909912,123.44763698266601,144.5396563909912,123.43629698266602,144.1708963909912L123.27002888266601,138.7640933909912C123.25542958266601,138.2893463909912,123.63631698266602,137.8965663909912,124.11128898266601,137.8965663909912" fill-rule="evenodd" fill="#ABA3CF" fill-opacity="1"/></g><g transform="matrix(0.8566297888755798,-0.5159315466880798,0.5141450762748718,0.8577032685279846,-45.35066023488514,89.37770901428428)" style="opacity:0.482724130153656;"><path d="M139.14106220288085,126.76374626159668C139.61493420288085,126.76374626159668,139.99532420288085,127.15491626159668,139.98208420288086,127.62860426159668L139.83083420288085,133.03913626159667C139.82051420288087,133.40852626159668,139.51809420288086,133.70260626159669,139.14856620288086,133.70260626159669C138.77977320288085,133.70260626159669,138.47767720288087,133.40965626159667,138.46635020288085,133.04103626159667L138.30011090288085,127.63093526159668C138.28552860288087,127.15637026159668,138.66627320288086,126.76374626159668,139.14106220288085,126.76374626159668" fill-rule="evenodd" fill="#ABA3CF" fill-opacity="1"/></g><g transform="matrix(0.9332968592643738,-0.35910576581954956,0.35763120651245117,0.9338629245758057,-32.03654186995641,63.51398971462686)" style="opacity:0.482724130153656;"><path d="M155.91052607592775,118.49751949310303C156.38424907592773,118.49751949310303,156.76451907592772,118.88856049310303,156.75128907592773,119.36209849310303L156.60006907592773,124.77536949310303C156.58974907592773,125.14462949310303,156.28743907592772,125.43861949310303,155.91802907592773,125.43861949310303C155.54935707592773,125.43861949310303,155.24736207592773,125.14574949310303,155.23604607592773,124.77725949310303L155.06982997592775,119.36442749310302C155.05526167592774,118.89001349310303,155.43588807592772,118.49751949310303,155.91052607592775,118.49751949310303" fill-rule="evenodd" fill="#ABA3CF" fill-opacity="1"/></g><g transform="matrix(0.9848029613494873,-0.17404614388942719,0.17325107753276825,0.9848126173019409,-17.00557746296326,31.843646639225938)" style="opacity:0.482724130153656;"><path d="M173.93820188354493,113.3369312286377C174.41181688354493,113.3369312286377,174.79199688354493,113.7278802286377,174.7787868835449,114.2013102286377L174.62757688354492,119.6165412286377C174.61726688354491,119.9857112286377,174.31502688354493,120.2796412286377,173.94570388354492,120.2796412286377C173.57711788354493,120.2796412286377,173.2751958835449,119.9868412286377,173.26388888354492,119.61843122863769L173.09768918354493,114.20363722863769C173.0831310835449,113.72933122863769,173.46367188354492,113.3369312286377,173.93820188354493,113.3369312286377" fill-rule="evenodd" fill="#ABA3CF" fill-opacity="1"/></g><g><path d="M192.53719503491212,104.56539726257324C193.01309203491212,104.56539726257324,193.3970120349121,104.95471326257324,193.3903720349121,105.43056726257325L193.2178520349121,117.78899726257325C193.2127220349121,118.15649726257324,192.9133220349121,118.45179726257324,192.5457550349121,118.45179726257324C192.17854903491212,118.45179726257324,191.87930103491212,118.15709726257325,191.8736670349121,117.78989726257325L191.68403583491212,105.43174826257324C191.67672710491212,104.95544126257325,192.0608320349121,104.56539726257324,192.53719503491212,104.56539726257324" fill-rule="evenodd" fill="#352C5D" fill-opacity="1"/></g><g transform="matrix(0,1,1,0,-137.4208698272705,137.4208698272705)"><path d="M82.57582135229492,219.12818717956543C83.05283735229492,219.12818717956543,83.43764735229492,219.51843117956543,83.43095735229493,219.99539817956543L83.25812735229492,232.31748717956543C83.25296735229492,232.68588717956544,82.95283735229492,232.98188717956543,82.58439635229492,232.98188717956543C82.21631535229493,232.98188717956543,81.91634835229492,232.68648717956543,81.91067435229492,232.31838717956543L81.72070565229492,219.99658717956544C81.71334512229492,219.51916417956542,82.09834135229492,219.12818717956543,82.57582135229492,219.12818717956543" fill-rule="evenodd" fill="#352C5D" fill-opacity="1"/></g><g transform="matrix(0,1,-1,0,522.4940433502197,-84.23766899108887)"><path d="M304.23436017065427,219.12818717956543C304.7113761706543,219.12818717956543,305.0961861706543,219.51843117956543,305.0894961706543,219.99539817956543L304.9166661706543,232.31748717956543C304.9115061706543,232.68588717956544,304.6113761706543,232.98188717956543,304.2429351706543,232.98188717956543C303.8748541706543,232.98188717956543,303.5748871706543,232.68648717956543,303.5692131706543,232.31838717956543L303.37924447065427,219.99658717956544C303.3718839406543,219.51916417956542,303.7568801706543,219.12818717956543,304.23436017065427,219.12818717956543" fill-rule="evenodd" fill="#352C5D" fill-opacity="1"/></g></g><g><path d="M251.18577853393555,274.44429495239257C266.3067785339356,259.28829495239256,275.65877853393556,238.35029495239257,275.65877853393556,215.22259495239257C275.65877853393556,168.96749495239257,238.24977853393554,131.47029495239258,192.10367853393555,131.47029495239258C145.95757853393553,131.47029495239258,108.54877853393555,168.96749495239257,108.54877853393555,215.22259495239257C108.54877853393555,238.35029495239257,117.90097853393554,259.28829495239256,133.02147853393555,274.44429495239257L192.53657853393554,215.22259495239257L251.18577853393555,274.44429495239257Z" fill-rule="evenodd" fill="#F6F5FA" fill-opacity="1"/></g><g filter="url(#master_svg2_17_22067)"><ellipse cx="192.5365867614746" cy="215.65658569335938" rx="62.34146499633789" ry="62.488792419433594" fill="#FFFFFF" fill-opacity="1"/></g><g filter="url(#master_svg3_17_22068)"><ellipse cx="192.53659057617188" cy="215.65658569335938" rx="55.414634704589844" ry="55.54559326171875" fill="#FFFFFF" fill-opacity="1"/></g><g><path d="M142.06356682128907,178.1520467529297C154.53906682128905,161.00650675292968,177.99996682128906,151.9999967529297,194.49996682128906,153.5000397529297L194.99996682128906,153.50004575292968L194.00006682128907,160.0000167529297C176.50006682128907,159.5000167529297,159.84006682128907,167.7565467529297,148.00006682128907,182.50004675292968C136.34005682128907,198.2565467529297,133.48252682128907,219.87754675292967,143.50006682128907,241.50004675292968L144.00006682128907,242.50004675292968L137.50476682128905,245.49174675292969C125.99999682128906,223.50004675292968,128.41998682128906,196.9029467529297,142.06356682128907,178.1520467529297Z" fill="url(#master_svg4_1_897)" fill-opacity="1"/></g><g><path d="M192.1036582421875,129.73449325561523C239.2061482421875,129.73449325561523,277.3902482421875,168.00879325561522,277.3902482421875,215.22259325561524C277.3902482421875,216.78679325561524,277.3483482421875,218.34589325561524,277.26474824218747,219.89909325561524C277.2132482421875,220.85639325561522,276.3973482421875,221.59049325561523,275.4423482421875,221.53889325561522C274.4873482421875,221.4872932556152,273.7548482421875,220.66939325561523,273.8063482421875,219.71219325561523C273.8865482421875,218.22119325561522,273.9268482421875,216.72439325561524,273.9268482421875,215.22259325561524C273.9268482421875,169.92619325561523,237.2933482421875,133.20609325561523,192.1036582421875,133.20609325561523C191.1472602421875,133.20609325561523,190.3719482421875,132.42895325561523,190.3719482421875,131.47029325561525C190.3719482421875,130.51163725561523,191.1472602421875,129.73449325561523,192.1036582421875,129.73449325561523Z" fill="url(#master_svg5_1_954)" fill-opacity="1"/></g><g><ellipse cx="192.5365858078003" cy="131.47029495239258" rx="6.9268293380737305" ry="6.943199157714844" fill="#FFFFFF" fill-opacity="1"/><ellipse cx="192.5365858078003" cy="131.47029495239258" rx="5.195122241973877" ry="5.21149206161499" fill-opacity="0" stroke-opacity="1" stroke="#FB8F66" fill="none" stroke-width="3.463414192199707"/></g><g><g filter="url(#master_svg6_17_22079)"><path d="M275.65853471191406,226.93928696289063Q278.85290471191405,226.93928696289063,286.3718047119141,222.09831696289064C287.89750471191405,221.11601696289063,287.89750471191405,218.87615696289063,286.3718047119141,217.89385696289062Q278.85290471191405,213.05288696289062,275.65853471191406,213.05288696289062C271.83295471191406,213.05288696289062,268.73170471191406,216.16146696289061,268.73170471191406,219.99608696289062C268.73170471191406,223.83068696289064,271.83295471191406,226.93928696289063,275.65853471191406,226.93928696289063Z" fill-rule="evenodd" fill="#FFFFFF" fill-opacity="1"/></g><g><ellipse cx="275.6585340499878" cy="219.99608612060547" rx="6.9268293380737305" ry="6.943199157714844" fill="#7033FF" fill-opacity="1"/><ellipse cx="275.6585340499878" cy="219.99608612060547" rx="4.32926869392395" ry="4.3456385135650635" fill-opacity="0" stroke-opacity="1" stroke="#FFFFFF" fill="none" stroke-width="5.1951212882995605"/></g></g><g><g><path d="M310.9368585742188,217.40919763671874Q311.01478557421876,216.88968763671875,311.22778557421873,216.49485763671876Q311.44078357421876,216.10002763671875,311.76288357421873,215.83247763671875Q312.08498357421877,215.56492763671875,312.5031835742187,215.42985763671874Q312.92139357421877,215.29478763671875,313.40454357421874,215.29478763671875Q313.8876835742187,215.29478763671875,314.29290357421877,215.43245763671874Q314.69812357421876,215.57012763671875,314.98645357421873,215.82208763671875Q315.27478357421876,216.07405763671875,315.43583357421875,216.42731763671875Q315.59688357421874,216.78058763671876,315.59688357421874,217.20658763671875Q315.59688357421874,217.56505763671876,315.5085635742187,217.84039763671876Q315.4202435742188,218.11573763671876,315.25660357421873,218.32353763671875Q315.09295357421877,218.53134763671875,314.85917357421874,218.67420763671876Q314.6253935742188,218.81707763671875,314.3344635742188,218.91058763671876Q315.04620357421874,219.10800763671875,315.4046635742188,219.55218763671874Q315.76312357421875,219.99636763671876,315.76312357421875,220.67692763671874Q315.76312357421875,221.20163763671874,315.56571357421876,221.61987763671874Q315.36829357421874,222.03807763671875,315.02542357421873,222.32637763671875Q314.68254357421876,222.61467763671874,314.22796357421873,222.76797763671874Q313.77339357421874,222.92117763671874,313.25907357421875,222.92117763671874Q312.67203357421874,222.92117763671874,312.2512235742187,222.77837763671874Q311.83042357421874,222.63547763671875,311.53429357421874,222.37837763671874Q311.23817557421876,222.12117763671876,311.04335857421876,221.76007763671876Q310.84854157421876,221.39907763671874,310.7134685742187,220.96785763671875L311.15505357421875,220.78083763671876Q311.3264935742188,220.70809763671875,311.48754357421876,220.73926763671875Q311.64859357421875,220.77044763671876,311.72132357421873,220.92109763671874Q311.79925357421877,221.07695763671876,311.90055357421875,221.27176763671875Q312.00186357421876,221.46657763671874,312.17329357421875,221.64057763671875Q312.34473357421876,221.81467763671876,312.60189357421876,221.93417763671874Q312.85905357421876,222.05367763671876,313.2486835742188,222.05367763671876Q313.6227335742187,222.05367763671876,313.90327357421876,221.93157763671874Q314.18381357421873,221.80947763671875,314.37083357421875,221.61467763671874Q314.55785357421877,221.41987763671875,314.6513735742187,221.18085763671874Q314.74488357421876,220.94187763671874,314.74488357421876,220.70809763671875Q314.74488357421876,220.41717763671875,314.6721535742187,220.17300763671875Q314.59942357421875,219.92883763671875,314.3942135742187,219.75479763671876Q314.18900357421876,219.58075763671874,313.8253435742188,219.48205763671876Q313.46168357421874,219.38334763671875,312.87983357421876,219.38334763671875L312.87983357421876,218.64563763671876Q313.35778357421873,218.64044763671876,313.68767357421876,218.54692763671875Q314.01756357421874,218.45341763671874,314.22017357421873,218.28717763671875Q314.4227835742187,218.12092763671876,314.51370357421877,217.89234763671874Q314.6046135742188,217.66375763671874,314.6046135742188,217.38322763671874Q314.6046135742188,217.07670763671874,314.51110357421874,216.84812763671874Q314.41759357421876,216.61953763671875,314.24875357421877,216.46628763671876Q314.07990357421875,216.31302763671874,313.84872357421875,216.23769763671876Q313.61754357421876,216.16236763671876,313.34739357421876,216.16236763671876Q313.07725357421873,216.16236763671876,312.84866357421873,216.24029763671874Q312.62007357421874,216.31822763671875,312.44344357421875,216.45848763671876Q312.26681357421876,216.59875763671874,312.1473235742188,216.79097763671876Q312.02783357421873,216.98319763671876,311.97588357421876,217.20658763671875Q311.9031535742188,217.40400763671875,311.79145357421874,217.47153763671875Q311.6797635742187,217.53907763671876,311.47195357421873,217.50270763671875L310.9368585742188,217.40919763671874ZM322.04406357421874,219.10800763671875Q322.04406357421874,220.08468763671874,321.83366357421875,220.80161763671876Q321.62326357421875,221.51857763671876,321.25696357421873,221.98867763671876Q320.89066357421876,222.45887763671874,320.39456357421875,222.68747763671874Q319.89844357421873,222.91607763671874,319.32698357421873,222.91607763671874Q318.75551357421875,222.91607763671874,318.25938357421876,222.68747763671874Q317.76324357421873,222.45887763671874,317.3995935742187,221.98867763671876Q317.03593357421875,221.51857763671876,316.82812357421875,220.80161763671876Q316.62032357421873,220.08468763671874,316.62032357421873,219.10800763671875Q316.62032357421873,218.13131763671876,316.82812357421875,217.41179763671875Q317.03593357421875,216.69227763671876,317.3995935742187,216.22211763671874Q317.76324357421873,215.75195763671874,318.25938357421876,215.52336763671875Q318.75551357421875,215.29478763671875,319.32698357421873,215.29478763671875Q319.89844357421873,215.29478763671875,320.39456357421875,215.52336763671875Q320.89066357421876,215.75195763671874,321.25696357421873,216.22211763671874Q321.62326357421875,216.69227763671876,321.83366357421875,217.41179763671875Q322.04406357421874,218.13131763671876,322.04406357421874,219.10800763671875ZM320.99466357421875,219.10800763671875Q320.99466357421875,218.26639763671875,320.85696357421875,217.70012763671875Q320.71926357421876,217.13385763671874,320.48806357421876,216.78837763671876Q320.25690357421877,216.44290763671876,319.95559357421877,216.29744763671874Q319.65427357421873,216.15197763671875,319.32698357421873,216.15197763671875Q318.99968357421875,216.15197763671875,318.69837357421875,216.29744763671874Q318.3970535742188,216.44290763671876,318.1658735742187,216.78837763671876Q317.93468357421875,217.13385763671874,317.79961357421877,217.70012763671875Q317.6645435742187,218.26639763671875,317.6645435742187,219.10800763671875Q317.6645435742187,219.94961763671876,317.79961357421877,220.51587763671876Q317.93468357421875,221.08214763671876,318.1658735742187,221.42507763671875Q318.3970535742188,221.76787763671874,318.69837357421875,221.91337763671874Q318.99968357421875,222.05887763671876,319.32698357421873,222.05887763671876Q319.65427357421873,222.05887763671876,319.95559357421877,221.91337763671874Q320.25690357421877,221.76787763671874,320.48806357421876,221.42507763671875Q320.71926357421876,221.08214763671876,320.85696357421875,220.51587763671876Q320.99466357421875,219.94961763671876,320.99466357421875,219.10800763671875ZM333.72266357421876,221.23800763671875Q333.81616357421876,221.23800763671875,333.88366357421876,221.31073763671876L334.32006357421875,221.78867763671875Q333.8629635742187,222.32897763671875,333.20576357421874,222.62507763671874Q332.54856357421875,222.92117763671874,331.6238635742188,222.92117763671874Q330.8133635742187,222.92117763671874,330.15616357421874,222.64067763671875Q329.4990635742187,222.36017763671876,329.03406357421875,221.85617763671874Q328.5690635742188,221.35227763671875,328.31456357421877,220.65095763671874Q328.0599635742187,219.94961763671876,328.0599635742187,219.10800763671875Q328.0599635742187,218.26639763671875,328.32756357421874,217.56505763671876Q328.5950635742187,216.86370763671874,329.07826357421874,216.35978763671875Q329.5613635742188,215.85585763671875,330.23416357421877,215.57531763671875Q330.90686357421873,215.29478763671875,331.7225635742187,215.29478763671875Q332.51736357421873,215.29478763671875,333.13556357421874,215.55453763671875Q333.75386357421877,215.81429763671875,334.21096357421874,216.24548763671876L333.8473635742188,216.75980763671876Q333.81096357421876,216.81695763671874,333.75646357421874,216.85331763671874Q333.70186357421875,216.88968763671875,333.61356357421874,216.88968763671875Q333.51486357421874,216.88968763671875,333.38236357421874,216.79097763671876Q333.24986357421875,216.69227763671876,333.03426357421876,216.57018763671874Q332.81866357421876,216.44809763671876,332.5017635742187,216.34939763671875Q332.18486357421875,216.25068763671874,331.7121635742187,216.25068763671874Q331.15626357421877,216.25068763671874,330.69386357421877,216.44550763671876Q330.23156357421874,216.64031763671875,329.8964635742187,217.00657763671876Q329.5613635742188,217.37283763671874,329.37696357421873,217.90533763671874Q329.19256357421875,218.43783763671874,329.19256357421875,219.10800763671875Q329.19256357421875,219.78856763671874,329.38476357421877,220.31846763671876Q329.5769635742188,220.84836763671876,329.91466357421876,221.21722763671875Q330.25236357421875,221.58607763671876,330.7094635742188,221.77827763671874Q331.1666635742188,221.97047763671875,331.69656357421877,221.97047763671875Q332.01866357421875,221.97047763671875,332.27586357421876,221.93157763671874Q332.53296357421874,221.89257763671876,332.74856357421874,221.81467763671876Q332.96416357421873,221.73677763671876,333.15636357421874,221.61467763671874Q333.34866357421873,221.49257763671875,333.53566357421874,221.32107763671874Q333.57716357421873,221.28475763671875,333.62396357421875,221.26137763671875Q333.67066357421874,221.23800763671875,333.72266357421876,221.23800763671875Z" fill="#ABA3CF" fill-opacity="1"/></g><g><ellipse cx="325.8780301809311" cy="215.65657711029053" rx="0.8658536672592163" ry="0.8678998947143555" fill-opacity="0" stroke-opacity="1" stroke="#ABA3CF" fill="none" stroke-width="0.8658535480499268"/></g></g><g><g><path d="M59.30941,221.1961882324219L59.30941,221.9701882324219L55.278,221.9701882324219L55.278,221.1961882324219L56.85732,221.1961882324219L56.85732,216.30752823242187Q56.85732,216.07374823242188,56.8729,215.82438823242188L55.60529,216.89976823242188Q55.53256,216.95691823242188,55.45983,216.9725082324219Q55.3871,216.9880882324219,55.32216,216.9776982324219Q55.25722,216.96730823242189,55.20787,216.93353823242188Q55.15851,216.89976823242188,55.12734,216.86340823242188L54.810439,216.42181823242188L57.04434,214.49442823242188L57.87037,214.49442823242188L57.87037,221.1961882324219L59.30941,221.1961882324219ZM65.7514,218.24011823242188Q65.7514,219.21679823242187,65.541,219.93372823242188Q65.3306,220.65068823242189,64.9643,221.1207882324219Q64.598,221.59098823242186,64.1019,221.81958823242186Q63.605779999999996,222.04818823242186,63.03432,222.04818823242186Q62.46285,222.04818823242186,61.96672,221.81958823242186Q61.47058,221.59098823242186,61.10693,221.1207882324219Q60.74327,220.65068823242189,60.53546,219.93372823242188Q60.32766,219.21679823242187,60.32766,218.24011823242188Q60.32766,217.2634282324219,60.53546,216.54390823242187Q60.74327,215.82438823242188,61.10693,215.35422823242186Q61.47058,214.88406823242187,61.96672,214.65547823242187Q62.46285,214.42689823242188,63.03432,214.42689823242188Q63.605779999999996,214.42689823242188,64.1019,214.65547823242187Q64.598,214.88406823242187,64.9643,215.35422823242186Q65.3306,215.82438823242188,65.541,216.54390823242187Q65.7514,217.2634282324219,65.7514,218.24011823242188ZM64.702,218.24011823242188Q64.702,217.39850823242188,64.5643,216.83223823242187Q64.42660000000001,216.26596823242187,64.1954,215.9204882324219Q63.964240000000004,215.57501823242188,63.66293,215.42955823242187Q63.36161,215.28408823242188,63.03432,215.28408823242188Q62.70702,215.28408823242188,62.40571,215.42955823242187Q62.10439,215.57501823242188,61.87321,215.9204882324219Q61.64202,216.26596823242187,61.50695,216.83223823242187Q61.37188,217.39850823242188,61.37188,218.24011823242188Q61.37188,219.08172823242188,61.50695,219.64798823242188Q61.64202,220.21425823242188,61.87321,220.55718823242188Q62.10439,220.89998823242186,62.40571,221.04548823242186Q62.70702,221.1909882324219,63.03432,221.1909882324219Q63.36161,221.1909882324219,63.66293,221.04548823242186Q63.964240000000004,220.89998823242186,64.1954,220.55718823242188Q64.42660000000001,220.21425823242188,64.5643,219.64798823242188Q64.702,219.08172823242188,64.702,218.24011823242188ZM74.8065,220.37011823242187Q74.9,220.37011823242187,74.9675,220.44284823242188L75.4039,220.92078823242187Q74.94669999999999,221.46108823242187,74.2895,221.75718823242187Q73.6324,222.05328823242186,72.7076,222.05328823242186Q71.8972,222.05328823242186,71.24,221.77278823242187Q70.58279999999999,221.49228823242188,70.11789999999999,220.98828823242187Q69.6529,220.48438823242188,69.3983,219.78306823242187Q69.1438,219.08172823242188,69.1438,218.24011823242188Q69.1438,217.39850823242188,69.4113,216.6971682324219Q69.6789,215.99581823242187,70.162,215.49189823242187Q70.6452,214.98796823242188,71.31790000000001,214.70742823242188Q71.9907,214.42689823242188,72.8063,214.42689823242188Q73.6012,214.42689823242188,74.21940000000001,214.68664823242187Q74.8376,214.94640823242187,75.2948,215.3775982324219L74.9311,215.8919182324219Q74.8948,215.94906823242187,74.8402,215.98542823242187Q74.78569999999999,216.02179823242187,74.6974,216.02179823242187Q74.59870000000001,216.02179823242187,74.4662,215.9230882324219Q74.3337,215.82438823242188,74.1181,215.70229823242187Q73.9025,215.58020823242188,73.5856,215.48150823242187Q73.2687,215.38279823242186,72.7959,215.38279823242186Q72.2401,215.38279823242186,71.7777,215.57761823242188Q71.31530000000001,215.77242823242187,70.9803,216.13868823242188Q70.6452,216.50494823242187,70.4607,217.03744823242187Q70.27629999999999,217.56994823242186,70.27629999999999,218.24011823242188Q70.27629999999999,218.92067823242186,70.4685,219.4505782324219Q70.6608,219.9804782324219,70.9984,220.34933823242187Q71.3361,220.71818823242188,71.7933,220.91038823242187Q72.2505,221.10258823242188,72.7804,221.10258823242188Q73.10249999999999,221.10258823242188,73.3596,221.06368823242187Q73.6168,221.02468823242188,73.8324,220.94678823242188Q74.048,220.86888823242188,74.2402,220.74678823242186Q74.4324,220.62468823242187,74.6194,220.45318823242187Q74.661,220.41686823242188,74.70779999999999,220.39348823242187Q74.75450000000001,220.37011823242187,74.8065,220.37011823242187Z" fill="#ABA3CF" fill-opacity="1"/></g><g><ellipse cx="66.12195146083832" cy="213.9207878112793" rx="0.8658536672592163" ry="0.8678998947143555" fill-opacity="0" stroke-opacity="1" stroke="#ABA3CF" fill="none" stroke-width="0.8658535480499268"/></g></g><g><g><path d="M185.53702470458984,92.5599Q185.70326470458986,92.5599,185.79678470458984,92.656Q185.89029470458985,92.7521,185.89029470458985,92.908L185.89029470458985,93.521L180.88219570458983,93.521L180.88219570458983,93.173Q180.88219570458983,93.069,180.92375670458983,92.9522Q180.96531770458984,92.8353,181.06402470458985,92.7418L183.42261470458985,90.37798000000001Q183.71873470458985,90.08185,183.95770470458984,89.80651Q184.19668470458984,89.53117,184.36292470458983,89.25843Q184.52917470458985,88.98568,184.62008470458986,88.69995Q184.71100470458984,88.41422,184.71100470458984,88.09732Q184.71100470458984,87.78561,184.61229470458986,87.54923Q184.51358470458985,87.31285,184.34214470458986,87.157Q184.17070470458984,87.00115,183.93692470458984,86.92322Q183.70314470458985,86.84529,183.43300470458985,86.84529Q183.16285470458985,86.84529,182.93686470458985,86.92322Q182.71087470458986,87.00115,182.53424470458984,87.14141Q182.35761470458985,87.28168,182.23812470458984,87.4739Q182.11863470458985,87.66612,182.06668470458985,87.88951Q181.99395470458984,88.08693,181.88225470458985,88.15446Q181.77056470458984,88.222,181.55756470458985,88.18563L181.02765870458984,88.09212Q181.10039070458984,87.57261,181.31339070458984,87.17778Q181.52639470458985,86.78295,181.84848470458985,86.5154Q182.17058470458986,86.24785,182.58879470458984,86.11278Q183.00700470458983,85.97771,183.49014470458985,85.97771Q183.97848470458985,85.97771,184.39150470458983,86.12057Q184.80451470458985,86.26344,185.10583470458985,86.53359Q185.40714470458985,86.80373,185.57858470458984,87.19077Q185.75002470458983,87.5778,185.75002470458983,88.06615Q185.75002470458983,88.48176,185.62793470458985,88.83762Q185.50585470458984,89.19349,185.29545470458984,89.51558Q185.08504470458985,89.83768,184.80711470458985,90.1416Q184.52917470458985,90.44551,184.21746470458984,90.75722L182.32643470458984,92.6898Q182.54463470458984,92.6327,182.76542470458983,92.5963Q182.98622470458983,92.5599,183.18363470458985,92.5599L185.53702470458984,92.5599ZM192.16603470458983,89.79093Q192.16603470458983,90.76761,191.95563470458984,91.48454Q191.74523470458985,92.2015,191.37893470458985,92.6716Q191.01263470458986,93.1418,190.51653470458984,93.3704Q190.02041470458985,93.599,189.44895470458985,93.599Q188.87748470458985,93.599,188.38135470458985,93.3704Q187.88521470458986,93.1418,187.52156470458985,92.6716Q187.15790470458984,92.2015,186.95009470458984,91.48454Q186.74229470458985,90.76761,186.74229470458985,89.79093Q186.74229470458985,88.81424,186.95009470458984,88.09472Q187.15790470458984,87.3752,187.52156470458985,86.90504Q187.88521470458986,86.43487999999999,188.38135470458985,86.20629Q188.87748470458985,85.97771,189.44895470458985,85.97771Q190.02041470458985,85.97771,190.51653470458984,86.20629Q191.01263470458986,86.43487999999999,191.37893470458985,86.90504Q191.74523470458985,87.3752,191.95563470458984,88.09472Q192.16603470458983,88.81424,192.16603470458983,89.79093ZM191.11663470458984,89.79093Q191.11663470458984,88.94932,190.97893470458985,88.38305Q190.84123470458985,87.81678,190.61003470458985,87.4713Q190.37887470458983,87.12583,190.07756470458983,86.98037Q189.77624470458986,86.8349,189.44895470458985,86.8349Q189.12165470458984,86.8349,188.82034470458984,86.98037Q188.51902470458984,87.12583,188.28784470458984,87.4713Q188.05665470458985,87.81678,187.92158470458983,88.38305Q187.78651470458985,88.94932,187.78651470458985,89.79093Q187.78651470458985,90.63254,187.92158470458983,91.1988Q188.05665470458985,91.76507,188.28784470458984,92.108Q188.51902470458984,92.4508,188.82034470458984,92.5963Q189.12165470458984,92.7418,189.44895470458985,92.7418Q189.77624470458986,92.7418,190.07756470458983,92.5963Q190.37887470458983,92.4508,190.61003470458985,92.108Q190.84123470458985,91.76507,190.97893470458985,91.1988Q191.11663470458984,90.63254,191.11663470458984,89.79093ZM201.22113470458984,91.92093Q201.31463470458985,91.92093,201.38213470458984,91.99366L201.81853470458984,92.4716Q201.36133470458984,93.0119,200.70413470458985,93.30799999999999Q200.04703470458983,93.6041,199.12223470458986,93.6041Q198.31183470458984,93.6041,197.65463470458985,93.3236Q196.99743470458984,93.0431,196.53253470458984,92.5391Q196.06753470458983,92.0352,195.81293470458985,91.33388Q195.55843470458984,90.63254,195.55843470458984,89.79093Q195.55843470458984,88.94932,195.82593470458986,88.24798Q196.09353470458984,87.54663,196.57663470458985,87.04271Q197.05983470458983,86.53878,197.73253470458985,86.25824Q198.40533470458985,85.97771,199.22093470458984,85.97771Q200.01583470458985,85.97771,200.63403470458985,86.23746Q201.25223470458985,86.49722,201.70943470458985,86.92841L201.34573470458986,87.44273Q201.30943470458985,87.49988,201.25483470458985,87.53624Q201.20033470458984,87.57261,201.11203470458983,87.57261Q201.01333470458985,87.57261,200.88083470458986,87.4739Q200.74833470458984,87.3752,200.53273470458984,87.25311Q200.31713470458985,87.13102,200.00023470458984,87.03232Q199.68333470458984,86.93361,199.21053470458983,86.93361Q198.65473470458986,86.93361,198.19233470458985,87.12843Q197.72993470458985,87.32324,197.39493470458984,87.6895Q197.05983470458983,88.05576,196.87533470458985,88.58826Q196.69093470458984,89.12076,196.69093470458984,89.79093Q196.69093470458984,90.47149,196.88313470458985,91.00139Q197.07543470458984,91.53129,197.41303470458985,91.90015Q197.75073470458983,92.269,198.20793470458983,92.4612Q198.66513470458983,92.6534,199.19503470458983,92.6534Q199.51713470458984,92.6534,199.77423470458984,92.61449999999999Q200.03143470458986,92.5755,200.24703470458985,92.4976Q200.46263470458985,92.4197,200.65483470458986,92.2976Q200.84703470458984,92.1755,201.03403470458983,92.004Q201.07563470458985,91.96768,201.12243470458984,91.9443Q201.16913470458985,91.92093,201.22113470458984,91.92093Z" fill="#FB8F66" fill-opacity="1"/></g><g><ellipse cx="194.26829373836517" cy="85.47159957885742" rx="0.8658536672592163" ry="0.8678998947143555" fill-opacity="0" stroke-opacity="1" stroke="#FB8F66" fill="none" stroke-width="0.8658535480499268"/></g></g><g><g><path d="M191.95162476353454,198.34790747436523C192.32451676353455,198.34790747436523,192.62790676353455,198.04380747436522,192.62790676353455,197.66986447436523C192.62790676353455,197.29609147436523,192.32451676353455,196.99181747436523,191.95162476353454,196.99181747436523C191.57856376353453,196.99181747436523,191.27517676353455,197.29609147436523,191.27517676353455,197.66986447436523C191.27517676353455,198.04380747436522,191.57856376353453,198.34790747436523,191.95162476353454,198.34790747436523Z" fill="#FB8F66" fill-opacity="1"/></g><g><path d="M194.6954711816406,180.72361024169922L194.6954711816406,193.95618524169922C195.87046118164062,194.82648524169923,196.56162118164062,196.18918524169922,196.56162118164062,197.6698852416992C196.56162118164062,200.2179852416992,194.4935511816406,202.29088524169921,191.95162118164063,202.29088524169921C189.40953118164063,202.29088524169921,187.34146118164062,200.2179852416992,187.34146118164062,197.6698852416992C187.34146118164062,196.18918524169922,188.03262218164062,194.82648524169923,189.20761118164063,193.95618524169922L189.20761118164063,180.72361024169922C189.20761118164063,180.36407624169922,189.49832118164062,180.07268524169922,189.8570011816406,180.07268524169922L194.04608118164063,180.07268524169922C194.40476118164062,180.07268524169922,194.6954711816406,180.36407624169922,194.6954711816406,180.72361024169922ZM191.30219118164064,182.75608524169922L191.30219118164064,195.80048524169922C190.53120118164063,196.07038524169923,189.97635118164064,196.8061852416992,189.97635118164064,197.6698852416992C189.97635118164064,198.7616852416992,190.86233118164063,199.64978524169922,191.95158118164062,199.64978524169922C193.04066118164062,199.64978524169922,193.92664118164063,198.7616852416992,193.92664118164063,197.6698852416992C193.92664118164063,196.8061852416992,193.3719511816406,196.07038524169923,192.60097118164063,195.80048524169922L192.60097118164063,182.75608524169922C192.60097118164063,182.39654524169922,192.31009118164062,182.1051552416992,191.95158118164062,182.1051552416992C191.59289118164062,182.1051552416992,191.30219118164064,182.39654524169922,191.30219118164064,182.75608524169922Z" fill-rule="evenodd" fill="#FB8F66" fill-opacity="1"/></g></g></g><g transform="matrix(1,-5.078630849197907e-10,0,1,0,0)"><line x1="0" y1="88.5" x2="29.000009536743164" y2="88.5" fill-opacity="0" stroke-opacity="1" stroke="#000000" fill="none" stroke-width="1"/></g><g transform="matrix(1,-5.078630849197907e-10,0,1,0,1.8333857099150919e-7)"><line x1="361" y1="84.5" x2="390.00000953674316" y2="84.5" fill-opacity="0" stroke-opacity="1" stroke="#000000" fill="none" stroke-width="1"/></g></g></svg>